<?xml version="1.0" standalone="no"?>
<!DOCTYPE svg PUBLIC "-//W3C//DTD SVG 20010904//EN"
 "http://www.w3.org/TR/2001/REC-SVG-20010904/DTD/svg10.dtd">
<svg version="1.0" xmlns="http://www.w3.org/2000/svg"
 width="600.000000pt" height="585.000000pt" viewBox="0 0 600.000000 585.000000"
 preserveAspectRatio="xMidYMid meet">
<g transform="translate(0.000000,585.000000) scale(0.100000,-0.100000)"
fill="#000000" stroke="none">
<path d="M1890 4370 c-267 -27 -499 -145 -699 -355 -231 -244 -352 -578 -338
-935 6 -161 25 -263 78 -425 78 -240 266 -569 473 -830 354 -446 915 -954
1465 -1327 117 -79 152 -98 181 -98 29 0 64 19 181 97 538 363 1114 885 1465
1328 270 341 469 731 529 1035 26 133 31 344 11 475 -42 268 -159 505 -344
696 -335 349 -831 441 -1258 234 -227 -110 -439 -327 -544 -559 -19 -41 -37
-75 -40 -75 -3 0 -21 34 -40 75 -120 264 -360 493 -624 595 -147 57 -342 84
-496 69z m235 -30 c20 0 85 -13 159 -32 30 -7 36 -12 25 -19 -10 -7 -5 -8 14
-3 17 4 27 2 27 -5 0 -7 9 -9 24 -5 16 4 25 1 30 -11 3 -9 10 -14 14 -11 13 8
84 -31 105 -57 10 -12 16 -16 12 -9 -9 17 10 15 28 -3 8 -8 18 -11 22 -7 5 4
5 2 2 -4 -4 -6 3 -20 16 -30 21 -19 21 -19 7 0 -14 18 -14 19 6 8 30 -16 47
-39 38 -54 -4 -7 -4 -10 1 -6 11 10 60 -17 84 -48 12 -15 21 -24 21 -20 0 4
14 -9 31 -28 17 -20 28 -40 25 -45 -4 -5 2 -12 11 -15 10 -3 29 -23 43 -43 14
-21 31 -43 39 -49 8 -6 11 -18 8 -27 -3 -9 -1 -19 5 -23 7 -5 8 -2 3 6 -5 9
-4 11 4 6 6 -4 22 -29 36 -55 18 -37 21 -51 12 -60 -9 -10 -8 -11 6 -5 13 5
16 2 10 -12 -4 -12 -3 -15 5 -10 11 7 15 -5 15 -39 0 -17 47 -17 63 0 9 8 12
20 8 27 -5 8 -2 9 9 5 12 -4 14 -2 10 10 -4 11 -2 14 5 9 8 -4 10 -2 6 8 -6
16 62 146 77 146 5 0 9 6 9 14 0 7 7 19 15 26 9 7 13 15 11 17 -7 7 28 40 37
36 4 -2 7 1 7 7 0 7 9 25 21 41 18 25 23 28 37 17 13 -12 14 -10 3 9 -10 20
-9 22 5 16 13 -5 15 -3 9 7 -6 10 -4 12 8 7 40 -16 50 -17 25 -2 -16 8 -28 18
-28 21 0 3 5 2 10 -1 6 -3 10 2 10 12 0 13 2 15 9 5 6 -10 11 -9 22 4 12 15
12 17 0 9 -10 -6 -12 -4 -7 4 5 7 14 10 21 7 8 -3 19 2 26 10 7 8 19 12 28 9
13 -5 13 -4 4 6 -10 10 -17 9 -33 -6 -18 -17 -20 -17 -14 -2 3 10 17 20 30 23
13 3 21 11 17 17 -3 5 -2 7 4 4 5 -3 21 5 35 18 14 13 29 21 32 18 3 -4 6 0 6
7 0 9 7 7 22 -6 19 -16 20 -16 9 -1 -13 16 -9 31 7 33 11 1 67 28 72 35 3 3
23 9 44 13 29 6 36 10 25 17 -11 7 -10 9 6 10 11 1 28 1 38 0 9 -1 17 3 17 9
0 6 5 8 11 4 6 -3 21 -2 32 4 30 15 167 40 161 30 -3 -4 7 -4 21 2 26 10 220
7 265 -4 14 -4 45 -11 70 -16 72 -14 155 -45 153 -56 -1 -6 8 -10 20 -9 21 2
122 -46 142 -67 7 -8 5 -8 -5 -3 -9 5 -12 4 -7 -1 5 -5 13 -10 18 -10 5 -1 13
-2 17 -3 5 0 23 -15 40 -32 18 -17 32 -28 32 -23 0 4 13 -5 30 -21 16 -15 27
-33 23 -38 -3 -6 -1 -7 6 -3 12 8 81 -56 81 -75 0 -6 5 -7 10 -4 6 3 10 -1 10
-10 0 -10 5 -13 13 -9 7 5 6 0 -3 -11 -8 -10 -10 -16 -3 -12 13 8 46 -20 38
-33 -3 -5 0 -12 6 -16 8 -5 9 -3 4 7 -8 12 -6 12 8 0 19 -15 23 -36 5 -25 -7
4 -8 3 -4 -5 4 -6 12 -9 17 -6 5 3 19 -16 31 -42 13 -26 28 -53 33 -59 6 -6
21 -35 35 -65 14 -30 29 -57 33 -60 5 -3 8 -9 8 -13 -2 -13 12 -61 21 -73 6
-7 8 -20 4 -28 -3 -8 -1 -15 5 -15 6 0 7 -5 4 -10 -4 -6 -2 -16 3 -23 14 -16
32 -120 35 -196 1 -33 4 -61 7 -61 3 0 6 -42 7 -93 2 -50 -1 -86 -5 -79 -5 7
-8 -5 -6 -30 1 -24 -7 -83 -18 -133 -11 -49 -20 -98 -20 -107 1 -10 -4 -18
-10 -18 -5 0 -8 -7 -5 -15 4 -8 2 -17 -3 -20 -8 -5 -26 -83 -22 -98 2 -5 -2
-6 -8 -2 -5 3 -10 -3 -10 -14 0 -11 -5 -23 -11 -26 -6 -4 -8 -13 -5 -20 2 -7
-2 -22 -11 -34 -8 -12 -16 -30 -18 -39 -1 -9 -8 -16 -15 -14 -6 1 -8 -3 -5 -9
8 -13 -13 -58 -35 -76 -11 -9 -12 -12 -2 -13 7 0 10 -5 7 -10 -4 -6 -12 -7
-18 -4 -7 4 -9 4 -5 0 5 -6 -42 -108 -58 -125 -2 -2 -12 2 -21 10 -16 13 -17
12 -5 -3 11 -13 10 -22 -3 -50 -27 -60 -72 -123 -84 -120 -7 1 -10 -2 -6 -8 4
-6 -6 -28 -22 -48 -15 -20 -27 -41 -25 -45 1 -5 -2 -6 -7 -3 -5 3 -12 -5 -15
-19 -4 -14 -12 -25 -18 -25 -9 0 -9 3 0 12 7 7 12 17 12 23 -1 12 -23 -24 -26
-42 -4 -22 -139 -192 -198 -248 -17 -17 -38 -41 -47 -55 -14 -22 -18 -23 -33
-11 -13 11 -19 12 -29 2 -9 -10 -8 -11 4 -6 39 15 26 -19 -28 -76 -32 -33 -57
-65 -55 -71 1 -5 -2 -7 -7 -4 -5 4 -13 2 -16 -4 -5 -8 -11 -7 -21 1 -10 8 -18
9 -27 0 -8 -6 -18 -7 -22 -3 -5 4 -5 1 -1 -6 6 -10 11 -10 22 -1 12 10 18 9
31 -3 14 -15 14 -16 -3 -15 -13 1 -19 -4 -18 -16 2 -13 -1 -15 -11 -7 -10 8
-15 8 -21 -1 -4 -8 -3 -9 4 -5 17 10 14 -6 -5 -29 -10 -13 -14 -15 -10 -4 3 9
0 16 -8 16 -7 0 -11 -5 -9 -12 3 -6 -4 -19 -15 -29 -11 -10 -18 -23 -14 -29 3
-5 1 -7 -4 -4 -12 7 -43 -19 -87 -73 -15 -19 -25 -29 -21 -22 3 6 1 12 -4 12
-10 0 -15 -14 -12 -32 0 -5 -3 -8 -8 -8 -5 0 -32 -22 -62 -50 -29 -27 -56 -47
-60 -44 -4 2 -11 -5 -14 -17 -9 -26 -45 -41 -65 -25 -13 9 -13 9 -1 -6 11 -15
9 -21 -19 -45 -43 -36 -65 -50 -55 -33 6 9 4 11 -4 6 -7 -5 -10 -14 -7 -22 3
-8 0 -14 -7 -14 -7 0 -32 -19 -56 -42 -25 -24 -41 -37 -37 -31 4 8 2 13 -6 13
-10 0 -9 3 2 11 12 9 12 10 -4 5 -10 -4 -24 -3 -30 1 -7 5 -4 1 6 -9 21 -19
24 -32 4 -25 -8 3 -13 -1 -12 -11 0 -10 -5 -16 -13 -14 -9 2 -11 -3 -7 -13 3
-9 2 -13 -4 -10 -6 3 -10 1 -10 -4 0 -6 -5 -11 -11 -11 -5 0 -7 5 -3 12 5 7 3
8 -5 4 -7 -5 -10 -14 -7 -21 5 -15 -20 -28 -36 -18 -6 3 -8 1 -5 -4 6 -10 -13
-31 -43 -48 -13 -8 -13 -6 -1 11 8 10 3 8 -11 -6 -14 -14 -23 -28 -21 -32 2
-5 -2 -8 -10 -8 -7 0 -23 -9 -34 -19 -15 -14 -24 -16 -31 -9 -8 8 -9 5 -5 -10
4 -17 1 -20 -16 -15 -15 4 -21 1 -19 -8 2 -7 -12 -21 -29 -30 -18 -9 -30 -19
-26 -23 3 -3 0 -6 -7 -6 -8 0 -28 -12 -44 -27 -29 -26 -29 -26 -11 -3 11 14
-2 5 -29 -20 -27 -25 -46 -40 -43 -34 3 6 0 11 -8 11 -8 0 -12 -4 -9 -9 3 -4
-2 -8 -11 -8 -8 0 -18 -7 -21 -15 -4 -8 -10 -13 -14 -10 -5 3 -11 1 -15 -4 -7
-12 -46 -5 -55 9 -4 6 -13 13 -21 14 -30 6 -49 19 -43 28 4 6 1 9 -7 6 -12 -4
-39 14 -82 57 -11 11 -16 14 -12 6 13 -22 -16 -3 -75 49 -22 20 -27 27 -12 20
12 -6 22 -9 23 -8 8 31 6 38 -7 27 -8 -6 -17 -9 -21 -6 -3 4 -12 2 -19 -4 -9
-7 -19 -1 -39 25 -15 20 -32 33 -37 30 -6 -4 -21 6 -35 22 -14 16 -28 29 -31
28 -4 0 -22 8 -39 19 -27 15 -31 22 -23 37 9 16 7 18 -11 15 -29 -6 -96 44
-77 57 8 6 5 7 -11 3 -20 -6 -23 -4 -18 9 4 11 3 15 -4 10 -6 -3 -21 4 -35 17
-13 12 -24 19 -24 14 0 -4 -9 0 -20 10 -11 10 -17 22 -14 26 3 5 -1 9 -9 9 -7
0 -33 19 -58 42 -24 22 -36 35 -26 28 9 -7 20 -10 24 -6 3 3 1 6 -6 6 -7 0
-10 4 -6 9 3 6 -4 8 -16 6 -15 -3 -31 5 -48 23 -13 15 -29 26 -35 24 -5 -2 -3
4 4 13 11 13 10 15 -1 10 -8 -2 -39 19 -72 50 -33 30 -63 55 -68 55 -4 0 -6 7
-3 15 5 11 2 13 -12 8 -12 -4 -15 -3 -10 5 4 7 2 12 -5 12 -17 0 -239 230
-240 249 0 11 -2 12 -6 3 -3 -9 -13 -2 -29 20 -14 18 -27 32 -29 31 -3 -2 -6
0 -7 4 -2 4 -20 23 -40 42 -29 27 -35 39 -27 52 6 12 5 20 -1 24 -6 4 -10 3
-9 -2 4 -26 -5 -22 -40 16 -53 57 -86 102 -83 113 1 4 -5 8 -13 8 -8 0 -22 12
-32 27 -10 16 -21 31 -26 34 -5 3 -9 10 -10 15 -1 18 -34 64 -40 58 -4 -4 -10
2 -13 12 -4 10 -21 36 -37 57 -16 20 -27 44 -24 52 4 9 1 12 -9 8 -14 -5 -18
7 -14 36 1 9 -4 12 -15 7 -12 -4 -16 -2 -12 7 3 7 -4 19 -14 25 -17 11 -18 16
-8 35 11 20 11 21 -4 8 -18 -14 -22 -7 -17 29 1 8 -1 12 -5 8 -5 -4 -21 13
-37 38 -23 37 -26 49 -17 60 7 8 9 17 5 21 -3 3 -6 1 -6 -5 0 -7 -4 -12 -10
-12 -5 0 -6 7 -3 17 4 11 3 14 -5 9 -7 -4 -12 -5 -12 -2 0 2 -3 12 -7 22 -5
13 -3 15 7 9 9 -5 11 -4 6 4 -4 6 -11 9 -15 6 -9 -5 -31 38 -31 61 0 9 -5 12
-12 8 -8 -5 -8 -1 2 12 8 10 10 16 6 12 -14 -12 -35 10 -29 31 2 9 -3 23 -11
30 -9 8 -16 19 -16 27 0 7 -5 25 -12 41 -6 15 -10 34 -9 41 1 6 -3 12 -9 12
-6 0 -9 4 -6 9 6 8 -16 97 -34 136 -4 11 -8 27 -8 35 0 8 -6 44 -12 80 -20
110 -14 352 10 435 10 33 21 90 23 117 1 9 5 14 10 11 5 -3 6 4 2 16 -4 13 -2
21 5 21 6 0 8 5 5 10 -3 6 -1 10 5 10 6 0 9 4 5 9 -3 5 1 25 9 43 8 18 21 48
28 66 7 17 17 32 21 32 5 0 5 -5 1 -12 -4 -7 -3 -8 4 -4 9 5 9 13 0 29 -10 20
-10 21 6 8 14 -12 16 -12 10 2 -6 16 3 36 31 71 12 17 17 17 31 5 16 -13 17
-12 1 12 -17 25 -14 39 7 39 6 0 4 -5 -4 -11 -12 -8 -12 -10 -1 -7 8 2 15 14
16 25 2 25 51 93 67 93 6 0 8 3 5 7 -4 3 6 19 22 34 16 15 27 30 23 33 -3 3 2
6 11 6 10 0 17 5 17 11 0 5 5 7 10 4 6 -3 10 1 10 9 0 9 4 16 9 16 5 0 23 14
39 30 17 17 34 30 37 30 4 0 25 14 46 31 21 17 43 28 48 25 5 -3 11 0 14 8 6
16 95 59 107 51 5 -3 12 0 16 6 5 8 3 9 -6 4 -9 -5 -11 -4 -6 4 4 6 12 9 17 6
5 -3 23 0 41 8 73 32 122 44 218 53 24 3 45 6 47 8 1 1 47 1 100 -1 54 -2 107
-3 118 -3z"/>
<path d="M1503 4218 c-15 -20 -25 -38 -20 -38 3 0 12 11 21 25 17 26 16 35 -1
13z"/>
<path d="M1868 4223 c7 -3 16 -2 19 1 4 3 -2 6 -13 5 -11 0 -14 -3 -6 -6z"/>
<path d="M1905 4209 c-38 -5 -97 -15 -130 -24 -33 -9 -68 -17 -77 -18 -10 -1
-18 -5 -18 -9 0 -4 -3 -7 -7 -7 -21 3 -56 -2 -50 -7 7 -7 -60 -44 -80 -44 -7
0 -13 -5 -13 -10 0 -6 -15 -8 -35 -6 -22 3 -33 1 -29 -5 3 -6 -2 -20 -13 -31
-12 -15 -13 -19 -3 -14 8 4 4 -2 -10 -13 -14 -11 -30 -19 -37 -16 -7 2 -15 -1
-19 -7 -5 -7 -2 -8 7 -3 8 5 -11 -16 -41 -46 -30 -29 -58 -53 -63 -51 -4 1 -6
-2 -5 -6 3 -9 -47 -72 -57 -72 -3 0 -3 5 1 12 4 7 3 8 -5 4 -9 -6 -9 -11 -1
-21 8 -10 5 -20 -15 -40 -14 -16 -25 -32 -25 -37 0 -4 -11 -6 -25 -4 -15 3
-23 1 -20 -5 4 -5 11 -7 16 -4 14 9 11 -8 -7 -33 -9 -13 -13 -26 -10 -29 3 -3
-3 -18 -13 -32 -10 -14 -21 -35 -24 -46 -3 -11 -17 -51 -30 -90 -14 -38 -25
-77 -25 -85 -1 -27 -23 -115 -32 -132 -5 -9 -6 -18 -2 -20 4 -2 5 -43 2 -93
-5 -88 0 -141 22 -255 6 -30 12 -70 14 -89 2 -19 8 -37 14 -41 6 -4 8 -14 4
-23 -3 -9 1 -24 10 -33 9 -8 14 -19 11 -24 -5 -8 14 -52 47 -114 5 -10 5 -16
0 -12 -5 3 -9 -1 -9 -9 0 -8 4 -12 8 -9 12 7 30 -32 23 -53 -4 -13 -3 -14 3
-5 7 9 17 -4 34 -48 13 -33 27 -60 31 -60 4 0 4 -7 1 -17 -4 -10 -2 -14 4 -10
10 6 60 -90 55 -106 -1 -5 2 -6 8 -2 14 9 13 -18 -2 -34 -10 -11 -10 -13 0 -7
16 9 16 -6 0 -24 -11 -12 -10 -12 3 -2 9 6 19 9 23 5 4 -4 4 0 0 10 -3 9 -2
17 4 17 13 0 24 -29 15 -42 -3 -6 -1 -8 5 -4 13 8 43 -33 35 -48 -3 -6 -3 -8
2 -4 4 4 20 -12 35 -35 14 -23 34 -50 44 -59 16 -16 14 -22 -6 -19 -13 2 -9
-6 9 -20 11 -10 14 -10 9 -1 -4 6 -3 12 1 12 13 0 34 -40 28 -50 -3 -6 1 -7 9
-4 10 4 16 1 16 -9 0 -8 10 -21 23 -30 12 -8 36 -34 52 -57 16 -23 49 -63 72
-89 41 -44 56 -70 31 -55 -7 4 -8 3 -4 -5 4 -6 11 -9 16 -6 13 8 57 -40 54
-59 -1 -9 3 -19 8 -23 7 -3 8 -1 4 5 -4 7 -4 12 -1 12 13 0 154 -153 149 -162
-3 -5 -1 -7 4 -6 5 2 30 -16 56 -40 25 -23 49 -44 53 -45 18 -5 63 -62 59 -73
-3 -8 1 -11 10 -7 8 3 27 -9 46 -28 17 -19 28 -28 23 -20 -6 10 -4 12 5 6 10
-6 10 -11 -3 -20 -10 -7 -17 -16 -17 -21 0 -4 5 -3 12 4 15 15 31 16 22 0 -5
-7 -3 -8 5 -4 18 12 49 -22 46 -49 -1 -14 2 -22 7 -19 5 3 7 13 3 21 -4 13 -3
14 10 3 8 -7 12 -17 8 -23 -3 -6 -1 -7 5 -3 6 4 26 -8 44 -25 18 -18 26 -28
18 -24 -13 8 -13 7 -1 -8 15 -19 36 -23 25 -5 -5 7 -3 8 5 4 7 -5 10 -14 7
-22 -3 -8 -2 -13 2 -13 4 1 17 -2 30 -6 22 -7 31 -25 12 -25 -5 0 -2 -8 8 -18
11 -12 20 -14 24 -8 7 10 12 2 9 -16 0 -4 7 -4 16 -1 13 5 15 2 10 -12 -6 -15
-5 -16 8 -5 12 10 15 10 15 -3 0 -8 7 -18 16 -21 8 -3 12 -2 9 4 -3 6 1 7 9 4
9 -3 13 -10 10 -15 -3 -5 5 -13 18 -18 13 -5 40 -25 60 -45 20 -20 42 -36 48
-36 6 0 8 -5 4 -12 -4 -6 -3 -8 4 -5 5 4 30 -9 54 -29 56 -47 58 -49 28 -33
-28 14 -56 21 -45 11 4 -4 10 -7 13 -7 4 0 13 -4 19 -8 7 -5 22 -10 33 -12 32
-6 75 -30 72 -39 -3 -8 10 -18 75 -51 18 -10 30 -21 27 -26 -3 -5 2 -9 10 -9
9 0 16 -4 16 -10 0 -5 7 -6 17 -3 11 4 14 3 9 -5 -5 -8 -1 -10 10 -5 10 4 15
2 11 -3 -3 -6 4 -11 16 -11 17 -2 19 0 7 7 -12 8 -10 10 8 10 13 0 21 -4 18
-9 -7 -11 20 -8 31 3 4 4 2 6 -6 4 -7 -2 -16 3 -19 11 -3 9 0 11 7 7 7 -4 27
6 47 24 20 17 47 35 60 40 13 5 24 14 24 20 0 5 5 10 11 10 5 0 7 -6 3 -12 -4
-8 -3 -10 2 -5 5 5 9 14 9 20 1 7 7 11 14 9 7 -1 10 1 7 6 -2 4 9 14 25 21 16
7 26 17 23 23 -5 7 -2 8 5 4 7 -5 10 -15 7 -23 -3 -8 -1 -11 5 -8 5 4 7 14 4
24 -3 11 5 23 28 36 17 10 41 28 52 40 11 11 29 27 39 35 18 13 19 13 12 0 -5
-8 2 -4 15 10 13 14 20 20 15 13 -5 -8 -7 -16 -4 -19 3 -2 12 10 20 27 9 18
18 27 22 20 4 -6 4 -17 1 -23 -4 -7 2 -2 13 12 11 13 20 29 19 35 -1 5 5 9 13
7 8 -2 12 0 8 4 -11 10 12 35 25 27 6 -3 7 -1 3 5 -4 7 -1 12 8 12 9 0 15 -5
13 -11 -1 -6 6 -13 16 -14 18 -3 18 -3 1 16 -18 20 -17 21 16 47 37 29 49 33
66 20 6 -4 11 -2 11 7 0 8 -4 12 -9 9 -4 -3 -8 -1 -8 4 0 14 56 63 76 66 11 2
18 10 16 20 -2 9 4 16 12 16 8 0 23 11 34 25 11 14 25 25 31 25 6 0 10 5 8 11
-1 6 5 14 13 16 11 3 12 2 3 -4 -10 -7 -10 -13 2 -29 13 -16 14 -16 9 -1 -3 9
-1 23 5 31 6 7 7 17 3 21 -4 5 -1 5 6 1 6 -4 12 -2 12 4 0 6 4 8 10 5 5 -3 7
0 4 8 -3 8 0 18 7 23 8 5 10 3 4 -6 -5 -9 -4 -11 3 -6 7 4 12 14 12 22 0 8 3
14 8 14 4 0 20 11 35 25 22 21 31 24 46 15 17 -9 19 -7 16 11 -3 12 -7 24 -11
28 -4 3 -4 -2 -1 -11 4 -10 2 -18 -3 -18 -11 0 -13 23 -4 33 4 3 16 2 27 -4
14 -8 18 -8 12 0 -8 14 13 43 26 35 5 -3 9 -2 8 3 -3 20 2 34 11 28 6 -4 7
-12 4 -18 -4 -7 5 -1 19 12 15 14 27 27 27 29 0 3 -9 -3 -20 -13 -25 -23 -26
-8 -1 22 12 14 27 21 44 19 15 -2 24 1 21 6 -3 5 -12 7 -19 4 -7 -2 -12 1 -11
9 3 18 26 45 36 42 5 -1 16 7 25 18 9 11 13 14 9 6 -5 -9 -3 -12 5 -7 6 4 9
11 7 15 -7 11 24 52 34 46 8 -5 25 23 22 37 -1 5 4 7 11 5 6 -1 11 4 9 12 -2
9 3 11 15 7 9 -4 14 -4 11 0 -10 9 11 46 22 39 5 -3 12 0 16 6 5 8 2 10 -7 5
-8 -4 -5 0 5 8 11 9 17 16 13 16 -4 0 3 11 15 25 11 13 26 22 31 18 6 -3 7 -1
4 4 -4 6 7 28 24 49 36 45 45 55 34 34 -5 -9 -5 -12 1 -7 5 5 9 12 10 15 2 19
17 41 24 37 4 -3 13 9 20 26 8 19 18 28 27 25 8 -4 17 -6 19 -6 3 0 2 -5 -2
-12 -4 -7 -3 -8 4 -4 6 4 8 14 5 24 -6 15 -5 16 13 2 18 -14 18 -14 5 3 -10
13 -17 15 -27 6 -17 -14 -17 -9 -4 26 6 16 16 25 23 22 9 -3 13 2 12 16 -1 11
6 28 14 36 9 9 24 28 34 41 10 14 15 19 11 11 -5 -9 -3 -12 4 -7 6 4 8 14 5
23 -5 12 -3 14 7 8 9 -5 11 -4 6 3 -8 13 20 72 34 72 6 0 10 8 10 19 0 21 23
44 34 34 4 -4 4 0 1 9 -7 18 28 82 39 71 4 -4 4 1 0 11 -5 14 -4 17 4 12 11
-6 18 19 13 47 0 4 3 7 9 7 5 0 7 7 4 15 -4 8 -2 15 2 15 12 0 39 62 35 80 -1
8 1 12 5 8 9 -9 46 91 38 103 -3 5 0 9 6 9 6 0 9 4 6 8 -2 4 4 39 15 77 10 38
19 82 19 97 0 15 4 29 9 33 5 3 8 22 6 42 -2 20 0 32 3 26 4 -6 7 31 7 83 0
52 -2 94 -5 94 -3 0 -6 21 -7 48 -1 34 1 41 7 27 7 -16 9 -17 9 -3 1 9 -3 19
-8 22 -9 6 -26 73 -22 93 1 6 -3 14 -9 18 -5 3 -10 15 -10 26 0 11 -11 51 -25
90 -13 40 -22 77 -18 83 3 6 2 8 -2 3 -5 -4 -20 14 -35 40 -17 31 -22 51 -15
55 6 5 2 8 -9 8 -15 0 -16 2 -6 15 10 13 11 18 1 28 -10 9 -11 8 -6 -5 10 -26
-10 -22 -24 5 -6 12 -20 36 -30 52 -10 17 -16 34 -13 39 3 5 0 6 -6 2 -7 -4
-12 -2 -12 4 0 6 -4 9 -9 5 -9 -5 -33 27 -28 36 1 2 0 3 -2 2 -11 -6 -43 38
-37 53 5 14 4 15 -8 5 -21 -18 -53 18 -47 52 1 5 -3 6 -9 2 -12 -7 -83 39 -73
48 3 4 1 8 -5 8 -33 4 -37 6 -34 18 1 7 -2 10 -7 7 -12 -8 -63 19 -54 28 4 4
-1 4 -11 0 -13 -5 -17 -4 -12 4 4 6 -3 12 -16 14 -13 2 -22 8 -21 13 1 6 -11
11 -25 11 -15 1 -67 13 -117 28 -72 21 -114 27 -212 29 -67 2 -120 0 -118 -3
1 -3 -15 -6 -37 -7 -23 -2 -74 -12 -114 -23 -41 -12 -78 -19 -83 -15 -5 3 -13
0 -17 -6 -4 -8 -3 -9 4 -5 7 4 12 2 12 -3 0 -6 -7 -12 -15 -12 -24 -2 -29 -4
-42 -12 -7 -5 -18 -5 -25 -1 -7 4 -8 3 -4 -5 4 -6 0 -14 -11 -18 -16 -6 -71
-41 -83 -53 -3 -3 -12 -6 -20 -8 -8 -2 -19 -10 -23 -18 -4 -8 -15 -14 -23 -14
-8 0 -12 -4 -9 -10 3 -5 -2 -10 -11 -10 -10 0 -14 -3 -11 -7 4 -3 -10 -17 -31
-31 -53 -35 -82 -64 -76 -74 3 -4 -1 -11 -9 -14 -8 -3 -17 -14 -20 -25 -3 -10
-10 -19 -17 -19 -6 0 -8 4 -5 10 3 6 -1 7 -9 4 -14 -5 -14 -8 -1 -21 23 -22
18 -27 -10 -9 -21 14 -24 14 -19 1 4 -8 11 -15 18 -15 7 0 6 -4 -2 -9 -8 -4
-14 -12 -14 -17 -1 -5 -12 -27 -27 -49 -28 -45 -86 -180 -96 -225 -4 -17 -10
-30 -14 -30 -4 0 -8 -14 -9 -31 -1 -18 -5 -36 -9 -42 -3 -5 -7 -26 -9 -46 -4
-52 -23 -256 -23 -258 -2 -3 -64 -23 -73 -23 -5 0 -7 4 -4 9 3 4 -4 17 -17 27
l-22 19 19 -22 c11 -13 14 -23 8 -23 -23 0 -39 57 -45 155 -4 55 -14 125 -23
155 -25 86 -27 109 -13 128 11 14 11 15 -1 5 -11 -10 -16 -7 -27 14 -8 15 -11
33 -8 40 3 9 0 11 -7 7 -7 -5 -9 0 -6 14 4 12 3 20 -2 17 -11 -7 -22 24 -13
37 3 6 1 8 -4 5 -12 -7 -26 20 -18 33 3 4 -2 10 -10 14 -8 3 -15 13 -15 21 0
10 -5 13 -11 9 -7 -4 -10 -1 -7 6 2 8 -3 21 -11 31 -26 28 -56 74 -54 81 2 4
-6 10 -17 13 -11 4 -17 11 -14 17 5 7 2 8 -6 3 -10 -6 -12 -4 -7 8 3 9 2 16
-2 14 -12 -3 -77 66 -73 78 2 6 0 7 -3 3 -4 -4 -16 3 -27 15 -11 12 -16 15
-13 7 4 -8 -6 -1 -22 16 -15 17 -39 34 -51 38 -14 5 -21 13 -18 21 3 8 0 12
-7 9 -21 -8 -104 40 -99 56 3 13 2 13 -8 0 -9 -11 -13 -12 -17 -2 -2 6 -9 10
-14 7 -4 -3 -19 1 -31 8 -38 24 -188 58 -268 61 -41 1 -106 -1 -145 -5z m307
-48 c265 -69 492 -259 624 -522 70 -139 106 -276 120 -458 8 -114 26 -141 94
-141 69 0 86 27 95 146 21 294 126 536 314 725 125 125 281 214 448 256 105
26 304 24 413 -5 365 -97 641 -409 725 -817 22 -105 22 -303 1 -420 -98 -543
-575 -1193 -1346 -1838 -164 -136 -390 -309 -552 -421 l-98 -68 -97 68 c-510
351 -1017 806 -1344 1204 -519 632 -684 1186 -498 1670 130 339 424 589 751
639 91 14 260 5 350 -18z m-724 -101 c-7 -11 -16 -20 -20 -20 -5 0 -3 9 4 20
7 11 16 20 20 20 5 0 3 -9 -4 -20z m1942 -143 c0 -2 -10 -12 -22 -23 l-23 -19
19 23 c18 21 26 27 26 19z m-980 -2907 c0 -5 -2 -10 -4 -10 -3 0 -8 5 -11 10
-3 6 -1 10 4 10 6 0 11 -4 11 -10z m1120 -74 c0 -3 -4 -8 -10 -11 -5 -3 -10
-1 -10 4 0 6 5 11 10 11 6 0 10 -2 10 -4z"/>
<path d="M3414 3788 l-19 -23 23 19 c21 18 27 26 19 26 -2 0 -12 -10 -23 -22z"/>
<path d="M2293 3675 c0 -8 4 -12 9 -9 5 3 6 10 3 15 -9 13 -12 11 -12 -6z"/>
<path d="M2193 3659 c-14 -5 -23 -17 -23 -29 0 -11 48 -86 106 -165 58 -80
104 -152 102 -161 -5 -27 -34 -40 -53 -24 -8 7 -61 75 -116 151 -54 75 -105
139 -112 142 -20 7 -47 -12 -47 -33 0 -11 47 -84 105 -163 58 -80 105 -152
105 -160 0 -14 -28 -37 -44 -37 -4 0 -58 70 -121 155 -63 85 -121 155 -128
155 -17 0 -37 -20 -37 -37 0 -7 48 -78 106 -158 107 -146 123 -185 81 -193
-26 -5 -37 6 -148 159 -61 83 -108 139 -118 139 -20 0 -41 -19 -41 -37 0 -7
68 -105 151 -218 169 -230 196 -254 300 -264 l58 -6 114 -155 114 -155 162 -3
162 -2 -50 67 c-27 38 -104 142 -170 233 -105 143 -120 168 -114 190 14 46 8
163 -10 198 -21 39 -261 368 -291 399 -16 16 -26 19 -43 12z m72 -106 c-2 -20
0 -21 13 -11 13 11 15 10 10 -4 -4 -10 -1 -19 9 -22 8 -4 13 -13 9 -21 -3 -8
-2 -14 2 -14 19 3 33 -2 28 -10 -3 -5 1 -12 10 -15 8 -3 13 -10 10 -15 -3 -5
3 -11 14 -14 13 -3 18 -10 14 -21 -3 -9 -11 -16 -16 -16 -6 0 -7 8 -4 17 4 10
4 14 0 10 -7 -7 -84 70 -84 84 0 4 -13 23 -30 41 -16 18 -30 38 -30 45 0 7 -4
13 -9 13 -8 0 -8 8 -1 40 3 17 57 -68 55 -87z m-153 -32 c2 -8 20 -32 40 -55
21 -23 41 -50 44 -61 4 -11 15 -26 25 -33 11 -7 23 -21 29 -32 11 -21 3 -53
-12 -44 -5 4 -5 11 2 19 7 9 6 16 -7 26 -16 13 -17 12 -4 -3 7 -10 9 -18 3
-18 -8 0 -23 23 -26 41 -1 3 -8 12 -16 21 -59 60 -82 91 -64 85 16 -6 17 -5 4
6 -32 27 -52 56 -45 67 8 13 22 3 27 -19z m-118 -106 c-4 -16 -3 -17 5 -5 10
14 12 13 15 -10 0 -5 10 -16 21 -25 11 -9 14 -13 6 -9 -9 4 -12 2 -9 -7 3 -8
11 -13 17 -11 6 1 11 -2 11 -7 0 -6 11 -21 23 -35 26 -28 32 -57 9 -49 -11 5
-11 7 0 14 12 8 11 10 -12 13 -5 0 -9 3 -8 6 1 3 -13 21 -30 40 -18 19 -32 39
-32 45 0 6 -9 16 -20 23 -12 7 -17 18 -13 29 4 11 3 14 -5 9 -7 -4 -12 -1 -12
8 0 14 3 14 20 4 13 -9 18 -19 14 -33z m474 -121 c18 -24 30 -48 27 -53 -3 -5
-1 -12 5 -16 5 -3 10 -15 10 -26 0 -11 4 -18 9 -14 13 7 6 -88 -8 -113 -6 -11
-7 -22 -4 -26 3 -3 0 -6 -8 -6 -10 -1 -9 -3 3 -11 9 -5 15 -16 12 -24 -4 -8
-10 -13 -14 -10 -4 3 -10 -1 -13 -9 -4 -9 2 -12 23 -10 23 3 31 -2 41 -26 7
-16 17 -26 21 -24 4 3 8 -2 8 -11 0 -10 -5 -13 -12 -9 -7 4 -8 3 -4 -4 4 -6
13 -9 20 -6 7 3 20 -6 30 -20 15 -24 15 -25 -1 -20 -12 3 -10 1 4 -8 26 -16
83 -86 83 -102 0 -6 -5 -4 -11 4 -9 13 -10 13 -6 0 2 -8 8 -15 14 -15 12 0 63
-59 63 -73 0 -5 7 -15 16 -22 8 -8 20 -22 25 -32 9 -17 3 -18 -122 -18 -112 0
-130 2 -125 15 3 8 2 14 -2 12 -4 -1 -7 3 -7 8 0 6 3 9 7 8 4 -2 5 4 1 13 -4
12 -8 12 -13 4 -6 -9 -15 -4 -31 15 -13 15 -33 37 -44 48 -11 11 -13 16 -5 12
8 -4 5 2 -7 14 -13 12 -23 26 -23 31 0 5 -8 16 -17 26 -10 10 -19 22 -19 28
-1 6 -3 14 -4 19 -2 7 -6 21 -9 33 0 3 -6 2 -12 -1 -7 -5 -4 -14 7 -26 9 -10
13 -19 8 -19 -14 0 -35 40 -28 52 4 6 3 8 -4 4 -6 -3 -13 -2 -16 3 -3 4 -28
11 -56 15 -28 4 -63 12 -78 18 -15 6 -31 12 -37 13 -5 0 -9 6 -8 13 2 6 -3 9
-10 6 -12 -4 -57 38 -57 54 1 4 11 -6 24 -21 21 -27 23 -27 36 -10 8 10 9 13
2 7 -9 -8 -23 -1 -53 27 -23 21 -38 43 -34 48 3 6 1 11 -5 11 -14 0 -59 51
-60 68 0 8 -5 10 -12 6 -9 -5 -8 -2 1 9 12 15 12 17 0 12 -9 -3 -19 6 -27 25
-8 17 -18 28 -23 24 -5 -3 -8 -2 -7 3 2 4 -8 20 -21 35 -43 48 -73 106 -60
114 7 4 9 3 6 -3 -4 -6 0 -13 8 -17 8 -3 15 -13 15 -21 0 -9 4 -14 9 -11 5 3
21 -11 37 -32 15 -20 20 -31 11 -23 -15 12 -17 12 -11 -3 3 -9 12 -16 20 -16
8 0 14 -4 14 -10 0 -5 0 -13 1 -17 0 -5 11 -14 25 -21 13 -7 24 -19 24 -28 0
-8 13 -29 30 -47 16 -18 30 -35 30 -40 0 -4 12 -4 27 -1 22 6 25 4 20 -10 -4
-10 -3 -15 3 -11 6 3 10 13 10 22 0 9 3 13 7 10 3 -4 14 5 23 21 16 26 16 29
-7 65 -13 20 -20 37 -16 37 5 0 0 5 -10 11 -9 6 -15 15 -11 20 3 6 13 2 22
-10 10 -10 25 -29 35 -41 10 -11 15 -25 12 -30 -3 -5 -1 -12 5 -15 6 -4 10 -3
9 2 -3 20 2 27 11 13 8 -12 15 -9 47 20 20 19 31 26 23 15 -14 -19 -14 -19 3
-6 13 10 14 17 7 26 -7 9 -8 15 -1 19 6 4 2 15 -9 26 -11 11 -20 25 -20 30 0
17 19 11 32 -10 7 -11 20 -20 28 -21 10 0 11 -2 2 -6 -6 -2 -10 -9 -6 -14 3
-5 13 -5 25 1 21 12 26 1 8 -17 -9 -9 -7 -11 7 -9 13 2 18 10 16 23 -1 11 4
26 13 33 8 7 15 19 15 27 0 11 3 13 13 5 9 -8 12 -5 12 13 0 16 -3 20 -11 14
-17 -14 -30 18 -25 63 0 7 11 -2 24 -20 12 -18 37 -53 55 -78z"/>
<path d="M2236 3582 c-3 -5 1 -9 9 -9 8 0 12 4 9 9 -3 4 -7 8 -9 8 -2 0 -6 -4
-9 -8z"/>
<path d="M2430 3316 c0 -2 8 -10 18 -17 15 -13 16 -12 3 4 -13 16 -21 21 -21
13z"/>
<path d="M1893 3295 c0 -8 4 -12 9 -9 5 3 6 10 3 15 -9 13 -12 11 -12 -6z"/>
<path d="M2231 3147 c-8 -10 -7 -14 2 -14 8 0 14 6 14 14 0 7 -1 13 -2 13 -2
0 -8 -6 -14 -13z"/>
<path d="M2070 3051 c0 -9 30 -24 36 -18 2 1 -6 8 -16 15 -11 7 -20 8 -20 3z"/>
<path d="M2200 2940 c8 -5 20 -10 25 -10 6 0 3 5 -5 10 -8 5 -19 10 -25 10 -5
0 -3 -5 5 -10z"/>
<path d="M2726 2682 c-3 -5 1 -9 9 -9 8 0 12 4 9 9 -3 4 -7 8 -9 8 -2 0 -6 -4
-9 -8z"/>
<path d="M3942 3639 c-121 -47 -246 -212 -273 -360 -10 -55 -9 -73 5 -122 9
-32 14 -63 10 -70 -32 -54 -320 -496 -332 -510 -15 -17 -9 -17 128 -15 l144 3
132 204 131 203 46 4 c68 5 135 44 204 118 169 180 188 431 40 533 -54 38
-157 43 -235 12z m161 -15 c-1 -5 11 -9 25 -8 30 1 55 -13 46 -27 -3 -5 -2 -9
3 -8 21 4 33 -2 33 -17 0 -13 -3 -14 -14 -5 -10 9 -16 9 -21 1 -4 -6 -4 -14
-1 -17 3 -4 6 -1 6 7 0 9 3 10 13 1 8 -6 16 -8 19 -6 3 3 12 -9 19 -27 17 -41
18 -181 1 -225 -6 -18 -17 -46 -23 -63 -6 -16 -16 -27 -21 -24 -5 3 -8 0 -6
-8 3 -17 -57 -90 -66 -80 -11 10 -37 11 -30 1 3 -5 10 -7 15 -4 20 13 8 -17
-18 -44 -16 -16 -37 -27 -50 -26 -13 1 -19 -3 -16 -11 6 -16 -14 -27 -23 -13
-5 8 -3 9 6 4 8 -5 11 -4 6 3 -10 16 -36 3 -29 -15 5 -13 3 -14 -17 -3 -12 7
-20 8 -16 2 3 -5 -1 -13 -10 -16 -8 -3 -12 -2 -9 4 8 13 2 13 -27 -1 -13 -6
-39 -31 -58 -57 -19 -26 -39 -50 -43 -53 -5 -3 -9 -10 -9 -15 0 -5 -4 -8 -10
-6 -5 1 -7 -2 -3 -8 3 -5 -5 -25 -18 -42 -13 -18 -27 -41 -30 -51 -4 -11 -12
-15 -19 -11 -7 5 -9 2 -5 -9 3 -8 -3 -26 -14 -39 -11 -13 -29 -33 -39 -45 -10
-12 -16 -24 -13 -27 4 -3 1 -6 -6 -6 -7 0 -10 -3 -7 -8 2 -4 -1 -14 -7 -22 -9
-12 -36 -15 -115 -15 -56 0 -102 3 -102 8 0 6 16 11 32 8 4 0 5 6 1 15 -5 13
-7 13 -14 2 -10 -15 -12 -7 -3 16 3 9 9 14 13 11 4 -2 13 12 20 31 7 19 17 32
22 29 5 -4 9 1 9 10 0 9 4 14 9 10 6 -3 8 4 6 16 -4 17 -2 19 11 8 12 -10 13
-9 8 4 -6 16 16 56 51 94 11 12 20 26 20 30 1 12 35 73 41 73 3 0 2 -6 -2 -12
-5 -9 -2 -8 10 1 13 11 14 16 4 23 -9 7 -7 8 8 5 13 -3 21 1 21 9 0 7 -4 11
-9 8 -14 -9 -9 6 15 41 13 19 26 32 29 30 3 -3 8 1 12 10 4 10 2 14 -5 9 -8
-4 -7 0 0 15 7 11 16 21 21 21 6 0 1 9 -10 20 -26 26 -33 59 -26 117 3 27 7
58 7 70 1 13 5 20 10 17 5 -3 9 4 9 16 0 26 49 120 66 127 8 3 12 9 9 13 -3 5
3 11 12 14 10 3 23 16 28 27 6 12 25 30 42 39 18 10 29 20 25 24 -4 4 -2 6 3
5 6 -2 25 5 43 15 19 9 36 15 40 12 3 -3 -1 -6 -8 -6 -7 0 -10 -3 -7 -6 4 -4
12 -2 19 4 24 20 115 25 111 6z"/>
<path d="M3886 3562 c5 -4 12 -11 15 -15 3 -5 9 -2 12 5 3 9 -3 14 -15 15 -11
1 -16 -1 -12 -5z"/>
<path d="M3860 3546 c0 -2 7 -7 16 -10 8 -3 12 -2 9 4 -6 10 -25 14 -25 6z"/>
<path d="M3776 3462 c-3 -5 1 -9 9 -9 8 0 12 4 9 9 -3 4 -7 8 -9 8 -2 0 -6 -4
-9 -8z"/>
<path d="M3851 2984 c0 -11 3 -14 6 -6 3 7 2 16 -1 19 -3 4 -6 -2 -5 -13z"/>
<path d="M3607 2906 c-4 -10 -1 -13 8 -9 8 3 12 9 9 14 -7 12 -11 11 -17 -5z"/>
<path d="M3686 2787 c3 -10 9 -15 12 -12 3 3 0 11 -7 18 -10 9 -11 8 -5 -6z"/>
<path d="M2004 3586 c1 -8 5 -18 8 -22 4 -3 5 1 4 10 -1 8 -5 18 -8 22 -4 3
-5 -1 -4 -10z"/>
<path d="M1769 3403 c-13 -16 -12 -17 4 -4 9 7 17 15 17 17 0 8 -8 3 -21 -13z"/>
<path d="M1800 2472 c-53 -26 -67 -59 -53 -124 51 -242 244 -462 533 -608 94
-47 262 -110 294 -110 13 0 16 -12 16 -74 0 -65 3 -79 24 -103 l24 -28 396 -3
395 -3 33 30 c30 27 33 34 36 103 l4 73 80 25 c320 96 600 315 708 554 68 149
68 235 0 268 -33 17 -113 18 -1245 18 -1132 0 -1212 -1 -1245 -18z m38 -27
c-7 11 2405 11 2448 1 14 -4 22 -11 19 -16 -3 -5 0 -12 6 -15 12 -8 3 -83 -13
-102 -5 -7 -7 -16 -4 -21 8 -13 -28 -84 -39 -75 -4 4 -5 3 -2 -3 4 -7 0 -25
-8 -40 -8 -16 -15 -34 -15 -39 0 -15 -37 -45 -46 -37 -4 4 -4 1 1 -7 5 -9 2
-19 -10 -28 -11 -7 -16 -13 -12 -13 3 0 -8 -15 -26 -34 -29 -31 -57 -40 -41
-14 4 7 2 8 -4 4 -9 -5 -9 -13 -1 -28 8 -15 8 -19 0 -14 -6 4 -11 3 -11 -1 0
-13 -56 -43 -65 -35 -5 4 -5 1 -1 -6 4 -7 12 -9 18 -6 7 5 8 2 4 -5 -5 -7 -14
-10 -20 -8 -7 3 -19 1 -27 -4 -12 -7 -12 -9 0 -9 11 0 9 -4 -4 -14 -11 -8 -23
-12 -27 -10 -5 3 -8 -2 -8 -11 0 -9 -4 -14 -9 -10 -6 3 -14 -3 -20 -12 -5 -10
-11 -16 -13 -14 -6 7 -48 -10 -48 -20 0 -6 -4 -7 -10 -4 -5 3 -10 2 -10 -2 0
-12 -107 -65 -135 -67 -13 0 -21 -4 -19 -7 2 -4 -17 -12 -41 -19 -25 -7 -45
-17 -45 -22 0 -5 -4 -7 -10 -3 -5 3 -26 -1 -46 -10 -27 -11 -34 -12 -28 -2 5
7 -3 -1 -18 -18 -27 -29 -33 -62 -30 -143 1 -15 -7 -27 -23 -34 -14 -6 -25
-14 -25 -17 0 -3 -161 -5 -357 -3 -197 1 -368 2 -379 2 -12 0 -32 8 -44 18
-20 16 -23 27 -21 77 1 38 -4 66 -14 82 -9 13 -13 29 -8 36 5 9 4 9 -8 0 -16
-13 -59 -7 -59 8 0 13 14 11 28 -3 8 -8 12 -8 12 -1 0 17 -31 25 -47 11 -9 -7
-17 -8 -21 -2 -4 5 -11 9 -17 9 -28 1 -94 29 -88 38 3 6 1 7 -5 4 -13 -9 -44
2 -37 13 6 9 -25 23 -33 15 -3 -3 1 -5 8 -5 7 0 11 -3 7 -6 -3 -4 -25 5 -49
19 -24 14 -46 25 -51 26 -16 2 -87 54 -87 64 0 6 -3 7 -7 4 -3 -4 -12 1 -20
11 -8 9 -11 11 -8 3 5 -9 -1 -8 -19 4 -14 10 -26 24 -26 32 0 8 -4 11 -10 8
-5 -3 -10 -1 -10 5 0 6 -3 9 -7 7 -13 -6 -50 39 -47 58 2 12 -1 14 -8 7 -13
-13 -82 64 -71 80 4 7 1 8 -6 4 -8 -5 -14 0 -18 13 -3 12 -10 18 -16 14 -6 -4
-1 11 11 33 18 31 18 34 4 17 l-19 -22 -22 23 c-12 13 -23 32 -26 43 -2 12
-11 36 -21 55 -10 18 -17 40 -16 50 2 9 -2 19 -8 23 -5 3 -10 25 -10 49 0 34
4 45 23 55 22 11 22 11 -3 6 l-25 -6 25 15 c19 11 28 12 39 3 8 -7 12 -7 9 -2z"/>
<path d="M1816 2422 c-3 -5 1 -9 9 -9 8 0 12 4 9 9 -3 4 -7 8 -9 8 -2 0 -6 -4
-9 -8z"/>
<path d="M2129 1913 c-13 -16 -12 -17 4 -4 9 7 17 15 17 17 0 8 -8 3 -21 -13z"/>
<path d="M2146 1893 c-6 -14 -5 -15 5 -6 7 7 10 15 7 18 -3 3 -9 -2 -12 -12z"/>
<path d="M2216 1838 c5 -8 2 -9 -10 -5 -9 4 -15 3 -11 -2 9 -15 44 -9 38 6 -3
7 -9 13 -15 13 -5 0 -6 -5 -2 -12z"/>
<path d="M3870 1830 c-9 -6 -10 -10 -3 -10 6 0 15 5 18 10 8 12 4 12 -15 0z"/>
<path d="M2624 1682 c3 -5 0 -13 -6 -15 -9 -4 -10 -6 -1 -6 17 -1 25 16 12 25
-7 4 -9 3 -5 -4z"/>
<path d="M2631 1504 c0 -11 3 -14 6 -6 3 7 2 16 -1 19 -3 4 -6 -2 -5 -13z"/>
<path d="M1846 2032 c-3 -5 1 -9 9 -9 8 0 12 4 9 9 -3 4 -7 8 -9 8 -2 0 -6 -4
-9 -8z"/>
<path d="M2083 1795 c0 -8 4 -12 9 -9 5 3 6 10 3 15 -9 13 -12 11 -12 -6z"/>
<path d="M2595 1410 c10 -11 20 -20 23 -20 3 0 -3 9 -13 20 -10 11 -20 20 -23
20 -3 0 3 -9 13 -20z"/>
<path d="M2536 1032 c-3 -5 1 -9 9 -9 8 0 12 4 9 9 -3 4 -7 8 -9 8 -2 0 -6 -4
-9 -8z"/>
<path d="M4605 4201 c-7 -12 12 -24 25 -16 11 7 4 25 -10 25 -5 0 -11 -4 -15
-9z"/>
<path d="M4726 4102 c-3 -5 1 -9 9 -9 8 0 12 4 9 9 -3 4 -7 8 -9 8 -2 0 -6 -4
-9 -8z"/>
<path d="M3534 4072 c2 -9 8 -17 15 -18 8 -2 8 -1 0 3 -8 4 -8 7 1 13 9 5 8 9
-3 13 -10 4 -14 0 -13 -11z"/>
<path d="M4821 4032 c-7 -14 -6 -19 4 -19 7 0 13 9 12 19 -1 10 -2 18 -4 18
-1 0 -7 -8 -12 -18z"/>
<path d="M2723 4025 c0 -8 4 -12 9 -9 5 3 6 10 3 15 -9 13 -12 11 -12 -6z"/>
<path d="M3407 4029 c7 -7 15 -10 18 -7 3 3 -2 9 -12 12 -14 6 -15 5 -6 -5z"/>
<path d="M3295 3940 c3 -5 8 -10 11 -10 2 0 4 5 4 10 0 6 -5 10 -11 10 -5 0
-7 -4 -4 -10z"/>
<path d="M3379 3913 c-13 -16 -12 -17 4 -4 16 13 21 21 13 21 -2 0 -10 -8 -17
-17z"/>
<path d="M2777 3833 c3 -7 8 -13 12 -13 4 0 8 6 8 13 0 8 -6 14 -13 14 -7 0
-10 -6 -7 -14z"/>
<path d="M3177 3807 c-3 -8 1 -14 8 -14 7 0 11 6 8 14 -3 7 -6 13 -8 13 -2 0
-5 -6 -8 -13z"/>
<path d="M2895 3790 c10 -11 20 -20 23 -20 3 0 -3 9 -13 20 -10 11 -20 20 -23
20 -3 0 3 -9 13 -20z"/>
<path d="M2845 3759 c-4 -6 -5 -12 -2 -15 2 -3 7 2 10 11 7 17 1 20 -8 4z"/>
<path d="M5025 3599 c-4 -6 -5 -12 -2 -15 2 -3 7 2 10 11 7 17 1 20 -8 4z"/>
<path d="M2940 3461 c0 -6 4 -13 10 -16 6 -3 7 1 4 9 -7 18 -14 21 -14 7z"/>
<path d="M3025 3121 c-3 -5 -2 -12 3 -15 5 -3 9 1 9 9 0 17 -3 19 -12 6z"/>
<path d="M931 2844 c0 -11 3 -14 6 -6 3 7 2 16 -1 19 -3 4 -6 -2 -5 -13z"/>
<path d="M1056 2667 c3 -10 9 -15 12 -12 3 3 0 11 -7 18 -10 9 -11 8 -5 -6z"/>
<path d="M1242 2144 c10 -10 20 -16 22 -13 3 3 -5 11 -17 18 -21 13 -21 12 -5
-5z"/>
<path d="M1366 2098 c3 -5 10 -6 15 -3 13 9 11 12 -6 12 -8 0 -12 -4 -9 -9z"/>
<path d="M4756 1998 c3 -5 10 -6 15 -3 13 9 11 12 -6 12 -8 0 -12 -4 -9 -9z"/>
<path d="M1467 1955 c-4 -8 -3 -16 1 -19 4 -3 9 4 9 15 2 23 -3 25 -10 4z"/>
<path d="M1546 1875 c19 -29 21 -30 21 -11 0 7 -9 19 -19 25 -18 11 -18 11 -2
-14z"/>
<path d="M1420 1851 c0 -6 4 -13 10 -16 6 -3 7 1 4 9 -7 18 -14 21 -14 7z"/>
<path d="M1460 1836 c0 -2 7 -7 16 -10 8 -3 12 -2 9 4 -6 10 -25 14 -25 6z"/>
<path d="M1601 1793 c-1 -18 13 -23 29 -11 12 8 12 9 -2 5 -9 -3 -19 -1 -22 6
-3 9 -5 9 -5 0z"/>
<path d="M4483 1675 c0 -8 4 -12 9 -9 5 3 6 10 3 15 -9 13 -12 11 -12 -6z"/>
<path d="M4376 1653 c-6 -14 -5 -15 5 -6 7 7 10 15 7 18 -3 3 -9 -2 -12 -12z"/>
<path d="M4340 1649 c0 -5 5 -7 10 -4 6 3 10 8 10 11 0 2 -4 4 -10 4 -5 0 -10
-5 -10 -11z"/>
<path d="M4260 1575 c-7 -9 -8 -15 -2 -15 5 0 12 7 16 15 3 8 4 15 2 15 -2 0
-9 -7 -16 -15z"/>
<path d="M4290 1574 c-11 -12 -11 -18 2 -30 12 -12 17 -13 23 -3 5 7 4 10 -3
5 -16 -10 -25 13 -12 29 7 8 10 15 7 15 -2 0 -10 -7 -17 -16z"/>
<path d="M4355 1500 c-4 -6 -10 -8 -15 -5 -4 3 -11 -2 -14 -10 -4 -13 -2 -13
14 -5 18 10 36 30 26 30 -3 0 -8 -5 -11 -10z"/>
<path d="M4215 1471 c-3 -5 -2 -12 3 -15 5 -3 9 1 9 9 0 17 -3 19 -12 6z"/>
<path d="M4135 1391 c-3 -5 -2 -12 3 -15 5 -3 9 1 9 9 0 17 -3 19 -12 6z"/>
<path d="M4189 1358 c-5 -18 -6 -38 -1 -34 7 8 12 36 6 36 -2 0 -4 -1 -5 -2z"/>
<path d="M4093 1253 c4 -3 1 -13 -6 -22 -11 -14 -10 -14 5 -2 16 12 16 31 1
31 -4 0 -3 -3 0 -7z"/>
<path d="M3960 1230 c0 -5 5 -10 11 -10 5 0 7 5 4 10 -3 6 -8 10 -11 10 -2 0
-4 -4 -4 -10z"/>
<path d="M4004 1198 c-4 -7 -4 -10 1 -6 4 4 14 0 22 -10 13 -15 13 -15 3 6
-12 25 -16 27 -26 10z"/>
<path d="M3930 1126 c0 -2 8 -10 18 -17 15 -13 16 -12 3 4 -13 16 -21 21 -21
13z"/>
<path d="M2323 1067 c0 -8 6 -14 14 -14 9 0 10 4 2 14 -6 7 -12 13 -14 13 -1
0 -2 -6 -2 -13z"/>
<path d="M2280 990 c0 -5 5 -10 11 -10 5 0 7 5 4 10 -3 6 -8 10 -11 10 -2 0
-4 -4 -4 -10z"/>
<path d="M2327 956 c-4 -10 -1 -13 9 -9 10 4 12 0 8 -11 -3 -9 -4 -16 -1 -16
12 0 14 30 3 40 -10 8 -15 7 -19 -4z"/>
<path d="M2360 967 c0 -2 6 -10 14 -16 11 -9 16 -9 22 1 4 7 4 10 -1 6 -4 -4
-14 -3 -22 3 -7 6 -13 9 -13 6z"/>
<path d="M2525 900 c-3 -6 1 -7 9 -4 18 7 21 14 7 14 -6 0 -13 -4 -16 -10z"/>
<path d="M2536 781 c-3 -5 1 -11 9 -14 9 -4 12 -1 8 9 -6 16 -10 17 -17 5z"/>
<path d="M3265 679 c-4 -6 -5 -12 -2 -15 2 -3 7 2 10 11 7 17 1 20 -8 4z"/>
<path d="M3024 456 c1 -8 5 -18 8 -22 4 -3 5 1 4 10 -1 8 -5 18 -8 22 -4 3 -5
-1 -4 -10z"/>
<path d="M3447 4219 c7 -7 15 -10 18 -7 3 3 -2 9 -12 12 -14 6 -15 5 -6 -5z"/>
<path d="M4841 4146 c-9 -10 -7 -17 6 -27 16 -12 17 -12 6 2 -10 12 -10 18 -1
27 7 7 9 12 6 12 -3 0 -11 -6 -17 -14z"/>
<path d="M1284 1878 c-3 -5 0 -7 8 -6 7 2 12 -4 10 -12 -2 -8 0 -11 4 -7 14
13 12 34 -3 34 -7 0 -16 -4 -19 -9z"/>
<path d="M4128 1153 c6 -2 9 -10 6 -15 -4 -7 -2 -8 5 -4 13 9 5 26 -12 25 -9
0 -8 -2 1 -6z"/>
<path d="M4041 1096 c-9 -11 -9 -16 1 -22 7 -4 10 -4 6 1 -4 4 -3 14 3 22 6 7
9 13 6 13 -2 0 -10 -6 -16 -14z"/>
<path d="M3564 678 c10 -6 22 -6 26 -2 5 5 -3 10 -18 11 -22 1 -24 0 -8 -9z"/>
</g>
</svg>
